<svg xmlns="http://www.w3.org/2000/svg" viewBox="0 0 26.458 26.458">
  <g transform="translate(0 -270.542)">
    <path fill="#079dff" fill-rule="evenodd" d="M10.813 276.193c-3.46.008-3.216.075-4.421.301-.744.14-.814.196-1.804 1.44-.824 1.038-.992 1.722-1.191 2.188-.086.2-.997.29-1.225.529-.22.26-.719.805-.57 1.088.079.146.08.283.01.666-.048.265-.118.731-.155 1.036-.455 1.392-.55 3.803 1.125 4.6.717.33.716.33.658-.418-.057-.752.043-1.269.368-1.888a3.27 3.27 0 0 1 3.864-1.598c.925.288 1.565.847 2.012 1.76.23.47.243.545.256 1.448.007.524.016.96.019.971.003.01.49.346 5.187.346h.965a3.46 3.46 0 0 1 1.4-3.924l.038-.026c.55-.368.986-.519 1.618-.536a3.33 3.33 0 0 1 .747.027c.27.026.45.073.685.173 1.326.485 2.111 1.76 2.111 3.25 0 .341-.268 1.106-.36 1.418.854.01 2.569-.506 2.82-.71.13-.105.183-.266.241-.742a8.44 8.44 0 0 1 .14-.836c.037-.125.04-.571.008-.99-.05-.664-.1-.857-.387-1.508-.226-.51-.416-.82-.602-.984-1.619-1.54-3.733-2.339-4.098-2.39-2.807-3.436-3.44-4.535-4.17-4.536-.597-.001-4.795-.156-5.29-.155zm2.955 1.07c.944-.002 1.263.097 2.415.065.38-.044 3.196 3.42 3.017 3.724-.035.104-.726.691-1.019.622-.326-.076-.136-.198-.17-.5-.045-.38-.3-.598-.839-.714-.334-.072-.684.23-.771.665l.128.474c-2.025-.09-2.191-.049-4.002-.215-.096-.095-.214-3.661-.133-3.891.128-.328.917-.245 1.374-.23zm-4.426.022c1.186-.006 1.808.023 1.911.078.137.073.147.479.147 1.632 0 1.034-.058 2.09-.157 2.17-.125.105-.314.151-1.105.098a116.66 116.66 0 0 0-2.514-.085l-2.48-.054-.024-.4c-.03-.315.487-2.234 1.007-2.876l.376-.464 1.058-.05c.387-.03 1.07-.046 1.781-.049z"/>
    <circle cx="19.142" cy="287.536" r="2.715" fill="#fff4f4" fill-rule="evenodd" stroke="#000" stroke-linecap="round" stroke-linejoin="round" stroke-width=".872"/>
    <circle cx="6.475" cy="287.34" r="2.715" fill="#fff4f4" fill-rule="evenodd" stroke="#000" stroke-linecap="round" stroke-linejoin="round" stroke-width=".872"/>
    <ellipse cx="16.305" cy="283.384" fill="#ff9037" fill-rule="evenodd" rx=".408" ry=".299"/>
    <path fill="#d4e8d5" d="M22.528 283.308l.185 1.085 1.876.354c-.165-.47-.213-.667-.675-1.018-.462-.35-.66-.486-1.386-.421z"/>
    <path fill="#dc0000" d="M1.626 281.874h1.617l-1.847 1.732z"/>
  </g>
</svg>