<svg xmlns="http://www.w3.org/2000/svg" viewBox="0 0 264.583 264.583">
  <path fill="#feff00" stroke="#878800" stroke-width="5.257" d="M59.639 37.234c-3.793-.12-7.549.833-10.944 2.54-6.051 3.043-10.953 8.48-12.865 14.495-3.941 11.734-4.194 23.937-2.708 35.438.154.77.33 1.531.523 2.282l5.984-14.621 12.072 1.21 7.22-9.751 12.071 1.21 7.22-9.751 12.467 3.762c-1.204-2.48-2.519-4.909-3.885-7.297C80.69 47.77 73.08 37.273 59.64 37.234zM80.858 65.67l-7.22 9.75-12.072-1.21-7.22 9.751-12.072-1.21-7.694 12.395c4.698 13.99 15.664 24.887 24.143 37.001 8.515 12.954 13.107 28.32 19.85 42.306l7.116-15.661 13.401-.082 7.978-10.77 13.626 2.394c-6.5-11.04-14.036-17.242-16.458-27.841-3.098-11.362-5.277-32.958-8.477-44.323-.859-3.951-2.195-7.732-3.812-11.39zm125.219 13.65c-12.689-.13-20.63 9.517-27.073 17.835-1.512 2.298-2.975 4.64-4.331 7.04l12.676-2.98 6.599 10.181 12.125-.456 6.598 10.181 12.125-.457 5.063 14.966c.24-.738.462-1.486.665-2.246 2.197-11.386 2.703-23.582-.5-35.537-1.535-6.122-6.09-11.853-11.94-15.266-3.282-1.915-6.971-3.1-10.764-3.215-.42-.027-.834-.04-1.243-.044zm-21.703 27.103l-11.137.42c-1.841 3.55-3.41 7.242-4.513 11.132-3.9 11.144-7.417 32.562-11.215 43.71-3.077 10.428-10.986 16.148-18.16 26.764l13.749-1.541 7.293 11.245 13.37.913 6.127 16.074c7.6-13.54 13.14-28.589 22.444-40.988 9.216-11.563 20.837-21.76 26.396-35.429l-6.907-12.847-12.125.456-6.599-10.181-12.125.457zm-62.072 46.79l-12.52.075-7.977 10.77-13.402.08-8.346 13.292c.56 1.09 1.135 2.17 1.731 3.237 1.746 2.961 4.144 5.704 7.016 7.946l6.53-12.454 12.574-.074 7.484-10.105 12.322 2.164c-.466-4.632-2.145-9.108-4.43-12.994a67.314 67.314 0 0 0-.982-1.937zm5.54 17.764l-9.986.06-7.484 10.104-12.574.076-6.58 9.089c5.797 3.634 13.075 5.263 20.694 3.045 4.156-1.326 9.531-4.908 12.05-9.809 2.693-4.03 3.834-8.326 3.88-12.565zm9.726 20.243c-.37.608-.736 1.232-1.099 1.872-2.523 3.737-4.477 8.1-5.23 12.695l12.433-1.394 6.84 10.55 12.545.857 5.743 12.836c3.006-2.06 5.57-4.648 7.498-7.495a107.232 107.232 0 0 0 1.928-3.124l-7.503-13.784-13.372-.913-7.291-11.245zm-6.633 17.387c-.218 4.234.655 8.593 3.092 12.782 2.209 5.047 7.35 8.957 11.416 10.539 7.467 2.687 14.833 1.514 20.845-1.752l-6.003-9.482-12.545-.857-6.842-10.55z"/>
</svg>